<?xml version="1.0" encoding="UTF-8"?>
<!--Generator: Apple Native CoreSVG 232.5-->
<!DOCTYPE svg
PUBLIC "-//W3C//DTD SVG 1.1//EN"
       "http://www.w3.org/Graphics/SVG/1.1/DTD/svg11.dtd">
<svg version="1.1" xmlns="http://www.w3.org/2000/svg" xmlns:xlink="http://www.w3.org/1999/xlink" width="3300" height="2200">
 <!--glyph: "", point size: 100.0, font version: "19.2d2e1", template writer version: "128"-->
 <style>.monochrome-0 {-sfsymbols-motion-group:1;-sfsymbols-indices:0}
.monochrome-1 {opacity:0.0;-sfsymbols-clear-behind:true;-sfsymbols-motion-group:0;-sfsymbols-always-pulses:true}

.multicolor-0:tintColor {-sfsymbols-motion-group:1;-sfsymbols-indices:0}
.multicolor-1:white {-sfsymbols-motion-group:0;-sfsymbols-always-pulses:true}

.hierarchical-0:tertiary {-sfsymbols-motion-group:1;-sfsymbols-indices:0}
.hierarchical-1:primary {-sfsymbols-motion-group:0}

.shapeGroupLayer-0 {-sfsymbols-fill-action:draw;-sfsymbols-indices:1 2}
.shapeGroupLayer-1 {-sfsymbols-fill-action:draw;-sfsymbols-indices:3 4 5 6}

.SFSymbolsPreviewWireframe {fill:none;opacity:1.0;stroke:black;stroke-width:0.5}
</style>
 <g id="Notes">
  <rect height="2200" id="artboard" style="fill:white;opacity:1" width="3300" x="0" y="0"/>
  <line style="fill:none;stroke:black;opacity:1;stroke-width:0.5;" x1="263" x2="3036" y1="292" y2="292"/>
  <text style="stroke:none;fill:black;font-family:sans-serif;font-size:13;font-weight:bold;" transform="matrix(1 0 0 1 263 322)">Weight/Scale Variations</text>
  <text style="stroke:none;fill:black;font-family:sans-serif;font-size:13;text-anchor:middle;" transform="matrix(1 0 0 1 559.711 322)">Ultralight</text>
  <text style="stroke:none;fill:black;font-family:sans-serif;font-size:13;text-anchor:middle;" transform="matrix(1 0 0 1 856.422 322)">Thin</text>
  <text style="stroke:none;fill:black;font-family:sans-serif;font-size:13;text-anchor:middle;" transform="matrix(1 0 0 1 1153.13 322)">Light</text>
  <text style="stroke:none;fill:black;font-family:sans-serif;font-size:13;text-anchor:middle;" transform="matrix(1 0 0 1 1449.84 322)">Regular</text>
  <text style="stroke:none;fill:black;font-family:sans-serif;font-size:13;text-anchor:middle;" transform="matrix(1 0 0 1 1746.56 322)">Medium</text>
  <text style="stroke:none;fill:black;font-family:sans-serif;font-size:13;text-anchor:middle;" transform="matrix(1 0 0 1 2043.27 322)">Semibold</text>
  <text style="stroke:none;fill:black;font-family:sans-serif;font-size:13;text-anchor:middle;" transform="matrix(1 0 0 1 2339.98 322)">Bold</text>
  <text style="stroke:none;fill:black;font-family:sans-serif;font-size:13;text-anchor:middle;" transform="matrix(1 0 0 1 2636.69 322)">Heavy</text>
  <text style="stroke:none;fill:black;font-family:sans-serif;font-size:13;text-anchor:middle;" transform="matrix(1 0 0 1 2933.4 322)">Black</text>
  <line style="fill:none;stroke:black;opacity:1;stroke-width:0.5;" x1="263" x2="3036" y1="1903" y2="1903"/>
  <g transform="matrix(0.2 0 0 0.2 263 1933)">
   <path d="m46.2402 4.15039c21.5332 0 39.4531-17.8711 39.4531-39.4043s-17.9688-39.4043-39.502-39.4043c-21.4844 0-39.3555 17.8711-39.3555 39.4043s17.9199 39.4043 39.4043 39.4043Zm0-7.42188c-17.7246 0-31.8848-14.209-31.8848-31.9824s14.1113-31.9824 31.8359-31.9824c17.7734 0 32.0312 14.209 32.0312 31.9824s-14.209 31.9824-31.9824 31.9824Zm-17.9688-31.9824c0 2.14844 1.51367 3.61328 3.75977 3.61328h10.498v10.5957c0 2.19727 1.46484 3.71094 3.61328 3.71094 2.24609 0 3.71094-1.51367 3.71094-3.71094v-10.5957h10.5957c2.19727 0 3.71094-1.46484 3.71094-3.61328 0-2.19727-1.51367-3.71094-3.71094-3.71094h-10.5957v-10.5469c0-2.24609-1.46484-3.75977-3.71094-3.75977-2.14844 0-3.61328 1.51367-3.61328 3.75977v10.5469h-10.498c-2.24609 0-3.75977 1.51367-3.75977 3.71094Z"/>
  </g>
  <g transform="matrix(0.2 0 0 0.2 281.506 1933)">
   <path d="m58.5449 14.5508c27.2461 0 49.8047-22.6074 49.8047-49.8047 0-27.2461-22.6074-49.8047-49.8535-49.8047-27.1973 0-49.7559 22.5586-49.7559 49.8047 0 27.1973 22.6074 49.8047 49.8047 49.8047Zm0-8.30078c-23.0469 0-41.4551-18.457-41.4551-41.5039s18.3594-41.5039 41.4062-41.5039 41.5527 18.457 41.5527 41.5039-18.457 41.5039-41.5039 41.5039Zm-22.6562-41.5039c0 2.39258 1.66016 4.00391 4.15039 4.00391h14.3555v14.4043c0 2.44141 1.66016 4.15039 4.05273 4.15039 2.44141 0 4.15039-1.66016 4.15039-4.15039v-14.4043h14.4043c2.44141 0 4.15039-1.61133 4.15039-4.00391 0-2.44141-1.70898-4.15039-4.15039-4.15039h-14.4043v-14.3555c0-2.49023-1.70898-4.19922-4.15039-4.19922-2.39258 0-4.05273 1.70898-4.05273 4.19922v14.3555h-14.3555c-2.49023 0-4.15039 1.70898-4.15039 4.15039Z"/>
  </g>
  <g transform="matrix(0.2 0 0 0.2 304.924 1933)">
   <path d="m74.8535 28.3203c34.8145 0 63.623-28.8086 63.623-63.5742 0-34.8145-28.8574-63.623-63.6719-63.623-34.7656 0-63.5254 28.8086-63.5254 63.623 0 34.7656 28.8086 63.5742 63.5742 63.5742Zm0-9.08203c-30.1758 0-54.4434-24.3164-54.4434-54.4922 0-30.2246 24.2188-54.4922 54.3945-54.4922 30.2246 0 54.541 24.2676 54.541 54.4922 0 30.1758-24.2676 54.4922-54.4922 54.4922Zm-28.8574-54.4922c0 2.58789 1.85547 4.39453 4.58984 4.39453h19.7266v19.7754c0 2.68555 1.85547 4.58984 4.44336 4.58984 2.68555 0 4.54102-1.85547 4.54102-4.58984v-19.7754h19.7754c2.68555 0 4.58984-1.80664 4.58984-4.39453 0-2.73438-1.85547-4.58984-4.58984-4.58984h-19.7754v-19.7266c0-2.73438-1.85547-4.63867-4.54102-4.63867-2.58789 0-4.44336 1.9043-4.44336 4.63867v19.7266h-19.7266c-2.73438 0-4.58984 1.85547-4.58984 4.58984Z"/>
  </g>
  <text style="stroke:none;fill:black;font-family:sans-serif;font-size:13;font-weight:bold;" transform="matrix(1 0 0 1 263 1953)">Design Variations</text>
  <text style="stroke:none;fill:black;font-family:sans-serif;font-size:13;" transform="matrix(1 0 0 1 263 1971)">Symbols are supported in up to nine weights and three scales.</text>
  <text style="stroke:none;fill:black;font-family:sans-serif;font-size:13;" transform="matrix(1 0 0 1 263 1989)">For optimal layout with text and other symbols, vertically align</text>
  <text style="stroke:none;fill:black;font-family:sans-serif;font-size:13;" transform="matrix(1 0 0 1 263 2007)">symbols with the adjacent text.</text>
  <line style="fill:none;stroke:#00AEEF;stroke-width:0.5;opacity:1.0;" x1="776" x2="776" y1="1919" y2="1933"/>
  <g transform="matrix(0.2 0 0 0.2 776 1933)">
   <path d="m16.5527 0.78125c2.58789 0 3.85742-0.976562 4.78516-3.71094l6.29883-17.2363h28.8086l6.29883 17.2363c0.927734 2.73438 2.19727 3.71094 4.73633 3.71094 2.58789 0 4.24805-1.5625 4.24805-4.00391 0-0.830078-0.146484-1.61133-0.537109-2.63672l-22.9004-60.9863c-1.12305-2.97852-3.125-4.49219-6.25-4.49219-3.02734 0-5.07812 1.46484-6.15234 4.44336l-22.9004 61.084c-0.390625 1.02539-0.537109 1.80664-0.537109 2.63672 0 2.44141 1.5625 3.95508 4.10156 3.95508Zm13.4766-28.3691 11.8652-32.8613h0.244141l11.8652 32.8613Z"/>
  </g>
  <line style="fill:none;stroke:#00AEEF;stroke-width:0.5;opacity:1.0;" x1="792.836" x2="792.836" y1="1919" y2="1933"/>
  <text style="stroke:none;fill:black;font-family:sans-serif;font-size:13;font-weight:bold;" transform="matrix(1 0 0 1 776 1953)">Margins</text>
  <text style="stroke:none;fill:black;font-family:sans-serif;font-size:13;" transform="matrix(1 0 0 1 776 1971)">Leading and trailing margins on the left and right side of each symbol</text>
  <text style="stroke:none;fill:black;font-family:sans-serif;font-size:13;" transform="matrix(1 0 0 1 776 1989)">can be adjusted by modifying the x-location of the margin guidelines.</text>
  <text style="stroke:none;fill:black;font-family:sans-serif;font-size:13;" transform="matrix(1 0 0 1 776 2007)">Modifications are automatically applied proportionally to all</text>
  <text style="stroke:none;fill:black;font-family:sans-serif;font-size:13;" transform="matrix(1 0 0 1 776 2025)">scales and weights.</text>
  <g transform="matrix(0.2 0 0 0.2 1289 1933)">
   <path d="m14.209 9.32617 8.49609 8.54492c4.29688 4.3457 9.22852 4.05273 13.8672-1.07422l53.4668-58.9355-4.83398-4.88281-53.0762 58.3984c-1.75781 2.00195-3.41797 2.49023-5.76172 0.146484l-5.85938-5.81055c-2.34375-2.29492-1.80664-4.00391 0.195312-5.81055l57.373-54.0039-4.88281-4.83398-57.959 54.4434c-4.93164 4.58984-5.32227 9.47266-1.02539 13.8184Zm32.0801-90.9668c-2.09961 2.05078-2.24609 4.93164-1.07422 6.88477 1.17188 1.80664 3.4668 2.97852 6.68945 2.14844 7.32422-1.70898 14.9414-2.00195 22.0703 2.68555l-2.92969 7.27539c-1.70898 4.15039-0.830078 7.08008 1.85547 9.81445l11.4746 11.5723c2.44141 2.44141 4.49219 2.53906 7.32422 2.05078l5.32227-0.976562 3.32031 3.36914-0.195312 2.7832c-0.195312 2.49023 0.439453 4.39453 2.88086 6.78711l3.80859 3.71094c2.39258 2.39258 5.46875 2.53906 7.8125 0.195312l14.5508-14.5996c2.34375-2.34375 2.24609-5.32227-0.146484-7.71484l-3.85742-3.80859c-2.39258-2.39258-4.24805-3.17383-6.64062-2.97852l-2.88086 0.244141-3.22266-3.17383 1.2207-5.61523c0.634766-2.83203-0.146484-5.0293-3.07617-7.95898l-10.9863-10.9375c-16.6992-16.6016-38.8672-16.2109-53.3203-1.75781Zm7.4707 1.85547c12.1582-8.88672 28.6133-7.37305 39.7461 3.75977l12.1582 12.0605c1.17188 1.17188 1.36719 2.09961 1.02539 3.80859l-1.61133 7.42188 7.51953 7.42188 4.93164-0.292969c1.26953-0.0488281 1.66016 0.0488281 2.63672 1.02539l2.88086 2.88086-12.207 12.207-2.88086-2.88086c-0.976562-0.976562-1.12305-1.36719-1.07422-2.68555l0.341797-4.88281-7.4707-7.42188-7.61719 1.26953c-1.61133 0.341797-2.34375 0.195312-3.56445-0.976562l-10.0098-10.0098c-1.26953-1.17188-1.41602-2.00195-0.634766-3.85742l4.39453-10.4492c-7.8125-7.27539-17.9688-10.4004-28.125-7.42188-0.78125 0.195312-1.07422-0.439453-0.439453-0.976562Z"/>
  </g>
  <text style="stroke:none;fill:black;font-family:sans-serif;font-size:13;font-weight:bold;" transform="matrix(1 0 0 1 1289 1953)">Exporting</text>
  <text style="stroke:none;fill:black;font-family:sans-serif;font-size:13;" transform="matrix(1 0 0 1 1289 1971)">Symbols should be outlined when exporting to ensure the</text>
  <text style="stroke:none;fill:black;font-family:sans-serif;font-size:13;" transform="matrix(1 0 0 1 1289 1989)">design is preserved when submitting to Xcode.</text>
  <text id="template-version" style="stroke:none;fill:black;font-family:sans-serif;font-size:13;text-anchor:end;" transform="matrix(1 0 0 1 3036 1933)">Template v.5.0</text>
  <text style="stroke:none;fill:black;font-family:sans-serif;font-size:13;text-anchor:end;" transform="matrix(1 0 0 1 3036 1951)">Requires Xcode 15 or greater</text>
  <text id="descriptive-name" style="stroke:none;fill:black;font-family:sans-serif;font-size:13;text-anchor:end;" transform="matrix(1 0 0 1 3036 1969)">Generated from square.fill</text>
  <text style="stroke:none;fill:black;font-family:sans-serif;font-size:13;text-anchor:end;" transform="matrix(1 0 0 1 3036 1987)">Typeset at 100.0 points</text>
  <text style="stroke:none;fill:black;font-family:sans-serif;font-size:13;" transform="matrix(1 0 0 1 263 726)">Small</text>
  <text style="stroke:none;fill:black;font-family:sans-serif;font-size:13;" transform="matrix(1 0 0 1 263 1156)">Medium</text>
  <text style="stroke:none;fill:black;font-family:sans-serif;font-size:13;" transform="matrix(1 0 0 1 263 1586)">Large</text>
 </g>
 <g id="Guides">
  <g id="H-reference" style="fill:#27AAE1;stroke:none;" transform="matrix(1 0 0 1 339 696)">
   <path d="M0.993654 0L3.63775 0L29.3281-67.1323L30.0303-67.1323L30.0303-70.459L28.1226-70.459ZM11.6885-24.4799L46.9815-24.4799L46.2315-26.7285L12.4385-26.7285ZM55.1196 0L57.7637 0L30.6382-70.459L29.4326-70.459L29.4326-67.1323Z"/>
  </g>
  <line id="Baseline-S" style="fill:none;stroke:#27AAE1;opacity:1;stroke-width:0.5;" x1="263" x2="3036" y1="696" y2="696"/>
  <line id="Capline-S" style="fill:none;stroke:#27AAE1;opacity:1;stroke-width:0.5;" x1="263" x2="3036" y1="625.541" y2="625.541"/>
  <g id="H-reference" style="fill:#27AAE1;stroke:none;" transform="matrix(1 0 0 1 339 1126)">
   <path d="M0.993654 0L3.63775 0L29.3281-67.1323L30.0303-67.1323L30.0303-70.459L28.1226-70.459ZM11.6885-24.4799L46.9815-24.4799L46.2315-26.7285L12.4385-26.7285ZM55.1196 0L57.7637 0L30.6382-70.459L29.4326-70.459L29.4326-67.1323Z"/>
  </g>
  <line id="Baseline-M" style="fill:none;stroke:#27AAE1;opacity:1;stroke-width:0.5;" x1="263" x2="3036" y1="1126" y2="1126"/>
  <line id="Capline-M" style="fill:none;stroke:#27AAE1;opacity:1;stroke-width:0.5;" x1="263" x2="3036" y1="1055.54" y2="1055.54"/>
  <g id="H-reference" style="fill:#27AAE1;stroke:none;" transform="matrix(1 0 0 1 339 1556)">
   <path d="M0.993654 0L3.63775 0L29.3281-67.1323L30.0303-67.1323L30.0303-70.459L28.1226-70.459ZM11.6885-24.4799L46.9815-24.4799L46.2315-26.7285L12.4385-26.7285ZM55.1196 0L57.7637 0L30.6382-70.459L29.4326-70.459L29.4326-67.1323Z"/>
  </g>
  <line id="Baseline-L" style="fill:none;stroke:#27AAE1;opacity:1;stroke-width:0.5;" x1="263" x2="3036" y1="1556" y2="1556"/>
  <line id="Capline-L" style="fill:none;stroke:#27AAE1;opacity:1;stroke-width:0.5;" x1="263" x2="3036" y1="1485.54" y2="1485.54"/>
  <line id="left-margin-Ultralight-S" style="fill:none;stroke:#00AEEF;stroke-width:0.5;opacity:1.0;" x1="516.35" x2="516.35" y1="600.785" y2="720.121"/>
  <line id="right-margin-Ultralight-S" style="fill:none;stroke:#00AEEF;stroke-width:0.5;opacity:1.0;" x1="603.073" x2="603.073" y1="600.785" y2="720.121"/>
  <line id="left-margin-Regular-S" style="fill:none;stroke:#00AEEF;stroke-width:0.5;opacity:1.0;" x1="1404.51" x2="1404.51" y1="600.785" y2="720.121"/>
  <line id="right-margin-Regular-S" style="fill:none;stroke:#00AEEF;stroke-width:0.5;opacity:1.0;" x1="1495.18" x2="1495.18" y1="600.785" y2="720.121"/>
  <line id="left-margin-Black-S" style="fill:none;stroke:#00AEEF;stroke-width:0.5;opacity:1.0;" x1="2885.5" x2="2885.5" y1="600.785" y2="720.121"/>
  <line id="right-margin-Black-S" style="fill:none;stroke:#00AEEF;stroke-width:0.5;opacity:1.0;" x1="2981.3" x2="2981.3" y1="600.785" y2="720.121"/>
 </g>
 <g id="Symbols">
  <g id="Black-S" transform="matrix(1 0 0 1 2885.5 696)">
   <path class="SFSymbolsPreviewWireframe" d="M25 2.92969L70.8008 2.92969C80.3711 2.92969 86.0352-2.73438 86.0352-12.3047L86.0352-58.1055C86.0352-67.6758 80.3711-73.3398 70.8008-73.3398L25-73.3398C15.4297-73.3398 9.76562-67.6758 9.76562-58.1055L9.76562-12.3047C9.76562-2.73438 15.4297 2.92969 25 2.92969ZM20.2042-47.8393C20.2042-37.929 29.9329-26.2288 37.1784-26.2288L38.2166-26.2288C45.4621-26.2288 55.1923-37.929 55.1923-47.8393C55.1923-53.2846 52.1693-56.4372 46.309-56.4372L43.8167-56.4372L43.8167-48.9583L46.2961-48.9583C47.087-48.9583 47.7134-48.5013 47.7134-47.8882C47.7134-42.0824 41.1728-33.7077 37.6983-33.7077C34.2237-33.7077 27.6831-42.0824 27.6831-47.8882C27.6831-48.5013 28.3096-48.9583 29.1034-48.9583L31.5799-48.9583L31.5799-56.4372L29.0875-56.4372C23.2302-56.4372 20.2042-53.2846 20.2042-47.8393ZM46.0938-11.5145C54.0796-11.5145 57.9722-16.3967 59.0562-26.0215C59.582-31.0512 60.8268-32.8017 62.7384-32.8017C64.9698-32.8017 66.5633-31.0894 66.0049-24.1734L73.5421-24.1734C73.6658-36.2194 69.6201-40.2805 63.0277-40.2805C56.6392-40.2805 52.6854-36.1038 51.7708-28.3199C51.0158-22.1411 49.7842-18.9933 46.398-18.9933C42.667-18.9933 41.1575-23.2429 41.4148-31.3713L33.9359-31.3713C33.5629-18.3635 37.6121-11.5145 46.0938-11.5145ZM32.0181-48.0437C34.5859-48.0437 36.6966-50.1544 36.6966-52.7221C36.6966-55.2899 34.5859-57.4006 32.0181-57.4006C29.4503-57.4006 27.3381-55.2899 27.3381-52.7221C27.3381-50.1544 29.4503-48.0437 32.0181-48.0437ZM43.38-48.0437C45.9478-48.0437 48.0614-50.1544 48.0614-52.7221C48.0614-55.2899 45.9478-57.4006 43.38-57.4006C40.8152-57.4006 38.703-55.2899 38.703-52.7221C38.703-50.1544 40.8152-48.0437 43.38-48.0437ZM69.9136-13.7126C74.2599-13.7126 77.7933-17.246 77.7933-21.5861C77.7933-25.9323 74.2599-29.4656 69.9136-29.4641C65.5735-29.4626 62.0402-25.9323 62.0402-21.5861C62.0402-17.246 65.5735-13.7126 69.9136-13.7126ZM69.9426-20.6126C69.3983-20.6126 68.9403-21.0692 68.9403-21.6151C68.9403-22.1625 69.3983-22.5931 69.9426-22.5931C70.4914-22.5931 70.9239-22.1625 70.9239-21.6151C70.9239-21.0692 70.4914-20.6126 69.9426-20.6126Z"/>
  </g>
  <g id="Regular-S" transform="matrix(1 0 0 1 1404.51 696)">
   <path class="SFSymbolsPreviewWireframe" d="M22.2168 0.390625L68.457 0.390625C76.8066 0.390625 80.9082-3.71094 80.9082-11.9141L80.9082-58.4961C80.9082-66.6992 76.8066-70.8008 68.457-70.8008L22.2168-70.8008C13.916-70.8008 9.76562-66.6992 9.76562-58.4961L9.76562-11.9141C9.76562-3.71094 13.916 0.390625 22.2168 0.390625ZM19.2185-47.8393C19.2185-39.1633 27.4262-27.3601 34.419-27.3601L35.4141-27.3601C42.4068-27.3601 50.6006-39.1633 50.6006-47.8393C50.6006-52.6567 48.0629-55.3059 43.1844-55.3059L40.8159-55.3059L40.8159-50.0896L43.2147-50.0896C44.5844-50.0896 45.3843-49.2971 45.3843-47.8882C45.3843-42.1522 39.5273-32.5764 34.9096-32.5764C30.2918-32.5764 24.4348-42.1522 24.4348-47.8882C24.4348-49.2971 25.2347-50.0896 26.6061-50.0896L29.0032-50.0896L29.0032-55.3059L26.6347-55.3059C21.7579-55.3059 19.2185-52.6567 19.2185-47.8393ZM43.2468-12.7765C49.9704-12.7765 53.4591-17.6651 54.9142-27.0995C55.9092-33.378 57.4086-35.2763 59.7452-35.2763C62.5841-35.2763 64.1269-32.6403 64.0319-25.8529L69.2726-25.8529C68.9679-36.1341 65.8487-40.4926 59.8666-40.4926C54.397-40.4926 51.1661-36.881 49.8075-28.4927C48.6647-21.5991 47.0884-17.9927 43.229-17.9927C39.3515-17.9927 37.3718-22.4329 37.4794-30.3707L32.2631-30.3707C32.107-19.0795 35.9285-12.7765 43.2468-12.7765ZM29.6748-48.9076C31.7716-48.9076 33.4894-50.6254 33.4894-52.7221C33.4894-54.8189 31.7716-56.5368 29.6748-56.5368C27.5781-56.5368 25.8447-54.8189 25.8447-52.7221C25.8447-50.6254 27.5781-48.9076 29.6748-48.9076ZM40.1304-48.9076C42.2272-48.9076 43.9466-50.6254 43.9466-52.7221C43.9466-54.8189 42.2272-56.5368 40.1304-56.5368C38.0353-56.5368 36.3019-54.8189 36.3019-52.7221C36.3019-50.6254 38.0353-48.9076 40.1304-48.9076ZM66.8135-15.3196C70.5806-15.3196 73.6521-18.3913 73.6521-22.1844C73.6521-25.9513 70.5806-29.023 66.8135-29.0369C63.0204-29.0508 59.9488-25.9513 59.9488-22.1844C59.9488-18.3913 63.0204-15.3196 66.8135-15.3196ZM66.8256-20.0169C65.62-20.0169 64.6461-21.0048 64.6461-22.1965C64.6461-23.4039 65.62-24.3517 66.8256-24.3517C68.019-24.3517 68.9827-23.4039 68.9827-22.1965C68.9827-21.0048 68.019-20.0169 66.8256-20.0169Z"/>
  </g>
  <g id="Ultralight-S" transform="matrix(1 0 0 1 516.35 696)">
   <path class="SFSymbolsPreviewWireframe" d="M19.7647-1.562L66.9585-1.562C73.4917-1.562 76.9576-5.11864 76.9576-11.5508L76.9576-58.7686C76.9576-65.2007 73.4917-68.7573 66.9585-68.7573L19.7647-68.7573C13.2349-68.7573 9.76562-65.2915 9.76562-58.7686L9.76562-11.5508C9.76562-5.02782 13.2349-1.562 19.7647-1.562ZM19.9221-47.8393C19.9221-39.9649 26.9258-28.9731 33.1805-28.9731L33.8592-28.9731C40.1139-28.9731 47.1076-39.9649 47.1076-47.8393C47.1076-51.7677 45.2658-53.6929 41.5471-53.6929L40.0637-53.6929L40.0637-51.7026L41.8937-51.7026C44.1321-51.7026 45.1174-50.3075 45.1174-47.8882C45.1174-40.9565 38.9736-30.9634 33.5148-30.9634C28.0561-30.9634 21.9123-40.9565 21.9123-47.8882C21.9123-50.3075 22.8976-51.7026 25.1216-51.7026L26.966-51.7026L26.966-53.6929L25.4826-53.6929C21.7495-53.6929 19.9221-51.7677 19.9221-47.8393ZM41.3595-15.3547C47.1413-15.3547 49.7827-19.4072 51.1607-28.8241C52.1193-35.3442 53.8326-37.8599 56.8967-37.8599C60.0242-37.8599 61.7106-34.7366 62.0555-28.1623L64.0457-28.1623C63.5217-36.0574 61.2818-39.8501 56.8967-39.8501C52.5864-39.8501 50.4333-36.767 49.2192-29.3982C47.9615-21.7029 46.5866-17.3449 41.2593-17.3449C36.7805-17.3449 34.4611-21.6225 34.4755-29.7228L32.4853-29.7228C32.4709-20.0772 35.6625-15.3547 41.3595-15.3547ZM28.1515-50.5225C29.3525-50.5225 30.3511-51.5212 30.3511-52.7221C30.3511-53.9231 29.3525-54.9218 28.1515-54.9218C26.9505-54.9218 25.9562-53.9231 25.9562-52.7221C25.9562-51.5212 26.9505-50.5225 28.1515-50.5225ZM38.8682-50.5225C40.0691-50.5225 41.0534-51.5212 41.0534-52.7221C41.0534-53.9231 40.0691-54.9218 38.8682-54.9218C37.6528-54.9218 36.6585-53.9231 36.6585-52.7221C36.6585-51.5212 37.6528-50.5225 38.8682-50.5225ZM63.092-17.3364C66.3505-17.3364 68.9982-19.9844 68.9982-23.2772C68.9982-26.5356 66.3505-29.1836 63.092-29.1936C59.7992-29.2037 57.1511-26.5356 57.1511-23.2772C57.1511-19.9844 59.7992-17.3364 63.092-17.3364ZM63.092-19.1362C60.793-19.1362 58.9509-20.9883 58.9509-23.2772C58.9509-25.5618 60.793-27.3939 63.092-27.3939C65.3665-27.3939 67.1942-25.5618 67.1942-23.2772C67.1942-20.9883 65.3665-19.1362 63.092-19.1362Z"/>
  </g>
 </g>
 <g id="LayerTree">
  <g class="monochrome-0 multicolor-0:tintColor hierarchical-0:tertiary"/>
  <g class="monochrome-1 multicolor-1:white hierarchical-1:primary">
   <g class="shapeGroupLayer-0"/>
   <g class="shapeGroupLayer-1"/>
  </g>
 </g>
</svg>
